# xmcd
#
# Track frame offsets:
#  150
#  25575
#  48510
#  66735
#  96645
#  114960
#  130770
#  160395
#  186510
#  206760
#  228315
#  265305
#
# Disc length: 3783 seconds
#
# Revision: 0
# Processed by: cddbd v1.5.1PL2 Copyright (c) Steve Scherf et al.
# Submitted via: Collectorz.com_Music_Collector 6.11
#
DISCID=b30ec50c
DTITLE=Leigh Sloggett - Sliding To Your Destiny
DYEAR=2006
DGENRE=Blues
TTITLE0=Stay In Tune
TTITLE1=Toxic Waste
TTITLE2=Cupid's Arrow
TTITLE3=Black Dog Bark
TTITLE4=Sliding To Your Destiny
TTITLE5=Pushing On
TTITLE6=Heart Attack
TTITLE7=Train Ride
TTITLE8=Muroran
TTITLE9=Never Overlap
TTITLE10=Bad News
TTITLE11=I Want To Go Home
EXTD=
EXTT0=
EXTT1=
EXTT2=
EXTT3=
EXTT4=
EXTT5=
EXTT6=
EXTT7=
EXTT8=
EXTT9=
EXTT10=
EXTT11=
PLAYORDER=
